<svg id="visual" viewBox="0 0 900 600" width="900" height="600" xmlns="http://www.w3.org/2000/svg" xmlns:xlink="http://www.w3.org/1999/xlink" version="1.1"><path d="M0 171L21.5 171C43 171 86 171 128.8 179.5C171.7 188 214.3 205 257.2 216.3C300 227.7 343 233.3 385.8 230.8C428.7 228.3 471.3 217.7 514.2 216.7C557 215.7 600 224.3 642.8 229.8C685.7 235.3 728.3 237.7 771.2 231.8C814 226 857 212 878.5 205L900 198L900 0L878.5 0C857 0 814 0 771.2 0C728.3 0 685.7 0 642.8 0C600 0 557 0 514.2 0C471.3 0 428.7 0 385.8 0C343 0 300 0 257.2 0C214.3 0 171.7 0 128.8 0C86 0 43 0 21.5 0L0 0Z" fill="#ffa781"></path><path d="M0 197L21.5 184.8C43 172.7 86 148.3 128.8 142.7C171.7 137 214.3 150 257.2 150.7C300 151.3 343 139.7 385.8 139.8C428.7 140 471.3 152 514.2 156.3C557 160.7 600 157.3 642.8 159.3C685.7 161.3 728.3 168.7 771.2 174.8C814 181 857 186 878.5 188.5L900 191L900 0L878.5 0C857 0 814 0 771.2 0C728.3 0 685.7 0 642.8 0C600 0 557 0 514.2 0C471.3 0 428.7 0 385.8 0C343 0 300 0 257.2 0C214.3 0 171.7 0 128.8 0C86 0 43 0 21.5 0L0 0Z" fill="#d87e6b"></path><path d="M0 94L21.5 104.3C43 114.7 86 135.3 128.8 146.3C171.7 157.3 214.3 158.7 257.2 159C300 159.3 343 158.7 385.8 149.5C428.7 140.3 471.3 122.7 514.2 112.7C557 102.7 600 100.3 642.8 101.2C685.7 102 728.3 106 771.2 109.3C814 112.7 857 115.3 878.5 116.7L900 118L900 0L878.5 0C857 0 814 0 771.2 0C728.3 0 685.7 0 642.8 0C600 0 557 0 514.2 0C471.3 0 428.7 0 385.8 0C343 0 300 0 257.2 0C214.3 0 171.7 0 128.8 0C86 0 43 0 21.5 0L0 0Z" fill="#af5756"></path><path d="M0 85L21.5 82.5C43 80 86 75 128.8 79C171.7 83 214.3 96 257.2 100.3C300 104.7 343 100.3 385.8 97C428.7 93.7 471.3 91.3 514.2 94.2C557 97 600 105 642.8 102.3C685.7 99.7 728.3 86.3 771.2 78.3C814 70.3 857 67.7 878.5 66.3L900 65L900 0L878.5 0C857 0 814 0 771.2 0C728.3 0 685.7 0 642.8 0C600 0 557 0 514.2 0C471.3 0 428.7 0 385.8 0C343 0 300 0 257.2 0C214.3 0 171.7 0 128.8 0C86 0 43 0 21.5 0L0 0Z" fill="#853241"></path><path d="M0 41L21.5 45.3C43 49.7 86 58.3 128.8 62.5C171.7 66.7 214.3 66.3 257.2 60.2C300 54 343 42 385.8 42.5C428.7 43 471.3 56 514.2 56.5C557 57 600 45 642.8 44.3C685.7 43.7 728.3 54.3 771.2 55.5C814 56.7 857 48.3 878.5 44.2L900 40L900 0L878.5 0C857 0 814 0 771.2 0C728.3 0 685.7 0 642.8 0C600 0 557 0 514.2 0C471.3 0 428.7 0 385.8 0C343 0 300 0 257.2 0C214.3 0 171.7 0 128.8 0C86 0 43 0 21.5 0L0 0Z" fill="#5b0e2d"></path></svg>