<svg id="visual" viewBox="0 0 900 600" width="900" height="600" xmlns="http://www.w3.org/2000/svg" xmlns:xlink="http://www.w3.org/1999/xlink" version="1.1"><path d="M0 208L21.5 206.8C43 205.7 86 203.3 128.8 196.5C171.7 189.7 214.3 178.3 257.2 179.3C300 180.3 343 193.7 385.8 195.8C428.7 198 471.3 189 514.2 195.5C557 202 600 224 642.8 228.3C685.7 232.7 728.3 219.3 771.2 205C814 190.7 857 175.3 878.5 167.7L900 160L900 0L878.5 0C857 0 814 0 771.2 0C728.3 0 685.7 0 642.8 0C600 0 557 0 514.2 0C471.3 0 428.7 0 385.8 0C343 0 300 0 257.2 0C214.3 0 171.7 0 128.8 0C86 0 43 0 21.5 0L0 0Z" fill="#ffa781"></path><path d="M0 134L21.5 136.3C43 138.7 86 143.3 128.8 147.2C171.7 151 214.3 154 257.2 150.8C300 147.7 343 138.3 385.8 139.3C428.7 140.3 471.3 151.7 514.2 157C557 162.3 600 161.7 642.8 163.3C685.7 165 728.3 169 771.2 163.7C814 158.3 857 143.7 878.5 136.3L900 129L900 0L878.5 0C857 0 814 0 771.2 0C728.3 0 685.7 0 642.8 0C600 0 557 0 514.2 0C471.3 0 428.7 0 385.8 0C343 0 300 0 257.2 0C214.3 0 171.7 0 128.8 0C86 0 43 0 21.5 0L0 0Z" fill="#d87e6b"></path><path d="M0 161L21.5 152.3C43 143.7 86 126.3 128.8 117C171.7 107.7 214.3 106.3 257.2 107.7C300 109 343 113 385.8 117.3C428.7 121.7 471.3 126.3 514.2 126C557 125.7 600 120.3 642.8 115C685.7 109.7 728.3 104.3 771.2 101.3C814 98.3 857 97.7 878.5 97.3L900 97L900 0L878.5 0C857 0 814 0 771.2 0C728.3 0 685.7 0 642.8 0C600 0 557 0 514.2 0C471.3 0 428.7 0 385.8 0C343 0 300 0 257.2 0C214.3 0 171.7 0 128.8 0C86 0 43 0 21.5 0L0 0Z" fill="#af5756"></path><path d="M0 65L21.5 73C43 81 86 97 128.8 104.3C171.7 111.7 214.3 110.3 257.2 105.3C300 100.3 343 91.7 385.8 93C428.7 94.3 471.3 105.7 514.2 101.8C557 98 600 79 642.8 69.8C685.7 60.7 728.3 61.3 771.2 64.2C814 67 857 72 878.5 74.5L900 77L900 0L878.5 0C857 0 814 0 771.2 0C728.3 0 685.7 0 642.8 0C600 0 557 0 514.2 0C471.3 0 428.7 0 385.8 0C343 0 300 0 257.2 0C214.3 0 171.7 0 128.8 0C86 0 43 0 21.5 0L0 0Z" fill="#853241"></path><path d="M0 45L21.5 49.8C43 54.7 86 64.3 128.8 66.8C171.7 69.3 214.3 64.7 257.2 60.5C300 56.3 343 52.7 385.8 47.3C428.7 42 471.3 35 514.2 33.5C557 32 600 36 642.8 38.5C685.7 41 728.3 42 771.2 41.3C814 40.7 857 38.3 878.5 37.2L900 36L900 0L878.5 0C857 0 814 0 771.2 0C728.3 0 685.7 0 642.8 0C600 0 557 0 514.2 0C471.3 0 428.7 0 385.8 0C343 0 300 0 257.2 0C214.3 0 171.7 0 128.8 0C86 0 43 0 21.5 0L0 0Z" fill="#5b0e2d"></path></svg>