<svg id="visual" viewBox="0 0 900 600" width="900" height="600" xmlns="http://www.w3.org/2000/svg"
    xmlns:xlink="http://www.w3.org/1999/xlink" version="1.1">
    <path d="M0 244L150 243L300 223L450 243L600 236L750 209L900 218L900 0L750 0L600 0L450 0L300 0L150 0L0 0Z"
        fill="#f5730a"></path>
    <path d="M0 215L150 173L300 202L450 169L600 163L750 188L900 185L900 0L750 0L600 0L450 0L300 0L150 0L0 0Z"
        fill="#df6009"></path>
    <path d="M0 127L150 145L300 156L450 142L600 158L750 176L900 134L900 0L750 0L600 0L450 0L300 0L150 0L0 0Z"
        fill="#c94d08"></path>
    <path d="M0 122L150 111L300 120L450 111L600 109L750 107L900 129L900 0L750 0L600 0L450 0L300 0L150 0L0 0Z"
        fill="#b33b06"></path>
    <path d="M0 87L150 80L300 83L450 83L600 97L750 93L900 75L900 0L750 0L600 0L450 0L300 0L150 0L0 0Z" 
        fill="#9d2804"></path>
    <path d="M0 43L150 28L300 45L450 46L600 32L750 49L900 41L900 0L750 0L600 0L450 0L300 0L150 0L0 0Z" 
        fill="#871400"></path>
</svg>