<svg id="visual" viewBox="0 0 900 600" width="900" height="600" xmlns="http://www.w3.org/2000/svg"
    xmlns:xlink="http://www.w3.org/1999/xlink" version="1.1">
    <rect x="0" y="0" width="900" height="600" fill="#931C1C"></rect>
    <path
        d="M0 378L129 423L257 405L386 434L514 381L643 390L771 400L900 421L900 601L771 601L643 601L514 601L386 601L257 601L129 601L0 601Z"
        fill="#f5730a"></path>
    <path
        d="M0 406L129 460L257 414L386 439L514 444L643 415L771 456L900 425L900 601L771 601L643 601L514 601L386 601L257 601L129 601L0 601Z"
        fill="#da5b09"></path>
    <path
        d="M0 501L129 511L257 442L386 460L514 477L643 455L771 502L900 447L900 601L771 601L643 601L514 601L386 601L257 601L129 601L0 601Z"
        fill="#be4407"></path>
    <path
        d="M0 497L129 506L257 529L386 498L514 516L643 533L771 491L900 483L900 601L771 601L643 601L514 601L386 601L257 601L129 601L0 601Z"
        fill="#a32d04"></path>
    <path
        d="M0 547L129 572L257 550L386 541L514 562L643 532L771 526L900 538L900 601L771 601L643 601L514 601L386 601L257 601L129 601L0 601Z"
        fill="#871400"></path>
</svg>