<svg id="visual" viewBox="0 0 900 600" width="900" height="600" xmlns="http://www.w3.org/2000/svg" xmlns:xlink="http://www.w3.org/1999/xlink" version="1.1"><rect x="0" y="0" width="900" height="600" fill="#202731"></rect><path d="M0 169L129 174L257 163L386 234L514 191L643 237L771 163L900 195L900 0L771 0L643 0L514 0L386 0L257 0L129 0L0 0Z" fill="#ff0066"></path><path d="M0 204L129 131L257 190L386 133L514 174L643 166L771 151L900 192L900 0L771 0L643 0L514 0L386 0L257 0L129 0L0 0Z" fill="#d02280"></path><path d="M0 136L129 89L257 100L386 160L514 120L643 108L771 148L900 89L900 0L771 0L643 0L514 0L386 0L257 0L129 0L0 0Z" fill="#983787"></path><path d="M0 66L129 77L257 112L386 116L514 80L643 63L771 94L900 109L900 0L771 0L643 0L514 0L386 0L257 0L129 0L0 0Z" fill="#613d7b"></path><path d="M0 67L129 25L257 56L386 63L514 27L643 69L771 74L900 60L900 0L771 0L643 0L514 0L386 0L257 0L129 0L0 0Z" fill="#373860"></path></svg>