<svg id="visual" viewBox="0 0 900 600" width="900" height="600" xmlns="http://www.w3.org/2000/svg" xmlns:xlink="http://www.w3.org/1999/xlink" version="1.1"><rect x="0" y="0" width="900" height="600" fill="#202731"></rect><path d="M0 204L129 153L257 234L386 195L514 224L643 158L771 238L900 237L900 0L771 0L643 0L514 0L386 0L257 0L129 0L0 0Z" fill="#ff0066"></path><path d="M0 168L129 191L257 130L386 150L514 197L643 176L771 202L900 127L900 0L771 0L643 0L514 0L386 0L257 0L129 0L0 0Z" fill="#d02280"></path><path d="M0 88L129 144L257 145L386 138L514 109L643 96L771 94L900 115L900 0L771 0L643 0L514 0L386 0L257 0L129 0L0 0Z" fill="#983787"></path><path d="M0 101L129 99L257 97L386 65L514 113L643 88L771 76L900 68L900 0L771 0L643 0L514 0L386 0L257 0L129 0L0 0Z" fill="#613d7b"></path><path d="M0 59L129 72L257 55L386 33L514 72L643 67L771 66L900 52L900 0L771 0L643 0L514 0L386 0L257 0L129 0L0 0Z" fill="#373860"></path></svg>