<svg id="visual" viewBox="0 0 900 600" width="900" height="600" xmlns="http://www.w3.org/2000/svg" xmlns:xlink="http://www.w3.org/1999/xlink" version="1.1"><g stroke-width="1" stroke-linejoin="bevel"><path d="M434 321.9L430 364.7L470 353.9Z" fill="#15384f" stroke="#15384f"></path><path d="M434 321.9L394 358.9L430 364.7Z" fill="#081a28" stroke="#081a28"></path><path d="M434 321.9L392 311L394 358.9Z" fill="#277297" stroke="#277297"></path><path d="M470 353.9L479 289L434 321.9Z" fill="#246688" stroke="#246688"></path><path d="M434 321.9L419 266.1L392 311Z" fill="#112e42" stroke="#112e42"></path><path d="M394 358.9L400 402.7L430 364.7Z" fill="#081a28" stroke="#081a28"></path><path d="M430 364.7L485 412.6L470 353.9Z" fill="#00101c" stroke="#00101c"></path><path d="M419 421.6L485 412.6L430 364.7Z" fill="#0c2435" stroke="#0c2435"></path><path d="M470 353.9L516 306L479 289Z" fill="#081a28" stroke="#081a28"></path><path d="M544 347.9L516 306L470 353.9Z" fill="#205a7a" stroke="#205a7a"></path><path d="M400 402.7L419 421.6L430 364.7Z" fill="#277297" stroke="#277297"></path><path d="M485 412.6L516 386.7L470 353.9Z" fill="#0c2435" stroke="#0c2435"></path><path d="M465 263.1L419 266.1L434 321.9Z" fill="#1d4e6b" stroke="#1d4e6b"></path><path d="M473 260.1L465 263.1L479 289Z" fill="#15384f" stroke="#15384f"></path><path d="M479 289L465 263.1L434 321.9Z" fill="#277297" stroke="#277297"></path><path d="M533 242.1L473 260.1L479 289Z" fill="#1d4e6b" stroke="#1d4e6b"></path><path d="M465 263.1L401 225.3L419 266.1Z" fill="#0c2435" stroke="#0c2435"></path><path d="M516 386.7L544 347.9L470 353.9Z" fill="#205a7a" stroke="#205a7a"></path><path d="M400 402.7L406 440.4L419 421.6Z" fill="#0c2435" stroke="#0c2435"></path><path d="M419 421.6L461 458.6L485 412.6Z" fill="#277297" stroke="#277297"></path><path d="M352 291L344 313.9L392 311Z" fill="#277297" stroke="#277297"></path><path d="M392 311L344 313.9L394 358.9Z" fill="#19435d" stroke="#19435d"></path><path d="M394 358.9L338 385.7L400 402.7Z" fill="#112e42" stroke="#112e42"></path><path d="M400 402.7L339 415.7L406 440.4Z" fill="#00101c" stroke="#00101c"></path><path d="M419 266.1L352 291L392 311Z" fill="#1d4e6b" stroke="#1d4e6b"></path><path d="M344 313.9L340 370.9L394 358.9Z" fill="#0c2435" stroke="#0c2435"></path><path d="M544 347.9L546 291L516 306Z" fill="#15384f" stroke="#15384f"></path><path d="M533 242.1L503 227.3L473 260.1Z" fill="#1d4e6b" stroke="#1d4e6b"></path><path d="M406 440.4L461 458.6L419 421.6Z" fill="#19435d" stroke="#19435d"></path><path d="M485 412.6L543 415.7L516 386.7Z" fill="#112e42" stroke="#112e42"></path><path d="M283 376.7L338 385.7L340 370.9Z" fill="#246688" stroke="#246688"></path><path d="M340 370.9L338 385.7L394 358.9Z" fill="#00101c" stroke="#00101c"></path><path d="M532 440.6L543 415.7L485 412.6Z" fill="#297ea6" stroke="#297ea6"></path><path d="M516 386.7L543 415.7L544 347.9Z" fill="#0c2435" stroke="#0c2435"></path><path d="M544 347.9L585 325L546 291Z" fill="#00101c" stroke="#00101c"></path><path d="M429 529.3L474 467.4L461 458.6Z" fill="#0c2435" stroke="#0c2435"></path><path d="M461 458.6L474 467.4L485 412.6Z" fill="#246688" stroke="#246688"></path><path d="M478 197.3L401 225.3L465 263.1Z" fill="#246688" stroke="#246688"></path><path d="M419 266.1L350 239.1L352 291Z" fill="#00101c" stroke="#00101c"></path><path d="M478 197.3L465 263.1L473 260.1Z" fill="#246688" stroke="#246688"></path><path d="M338 385.7L339 415.7L400 402.7Z" fill="#0c2435" stroke="#0c2435"></path><path d="M475 537.1L489 476.4L474 467.4Z" fill="#1d4e6b" stroke="#1d4e6b"></path><path d="M474 467.4L532 440.6L485 412.6Z" fill="#19435d" stroke="#19435d"></path><path d="M533 242.1L479 289L516 306Z" fill="#1d4e6b" stroke="#1d4e6b"></path><path d="M300 425.6L337 422.6L339 415.7Z" fill="#246688" stroke="#246688"></path><path d="M339 415.7L337 422.6L406 440.4Z" fill="#081a28" stroke="#081a28"></path><path d="M546 291L533 242.1L516 306Z" fill="#205a7a" stroke="#205a7a"></path><path d="M429 529.3L461 458.6L406 440.4Z" fill="#205a7a" stroke="#205a7a"></path><path d="M474 467.4L489 476.4L532 440.6Z" fill="#00101c" stroke="#00101c"></path><path d="M585 403.6L544 347.9L543 415.7Z" fill="#246688" stroke="#246688"></path><path d="M613 371.7L585 325L544 347.9Z" fill="#1d4e6b" stroke="#1d4e6b"></path><path d="M597 238.3L541 220.3L533 242.1Z" fill="#1d4e6b" stroke="#1d4e6b"></path><path d="M401 225.3L350 239.1L419 266.1Z" fill="#0c2435" stroke="#0c2435"></path><path d="M293 312L291 326L344 313.9Z" fill="#0c2435" stroke="#0c2435"></path><path d="M344 313.9L291 326L340 370.9Z" fill="#081a28" stroke="#081a28"></path><path d="M519 174.4L478 197.3L503 227.3Z" fill="#15384f" stroke="#15384f"></path><path d="M503 227.3L478 197.3L473 260.1Z" fill="#0c2435" stroke="#0c2435"></path><path d="M401 225.3L384 195.3L350 239.1Z" fill="#277297" stroke="#277297"></path><path d="M588 411.7L543 415.7L559 467.4Z" fill="#081a28" stroke="#081a28"></path><path d="M588 411.7L585 403.6L543 415.7Z" fill="#15384f" stroke="#15384f"></path><path d="M293 312L344 313.9L352 291Z" fill="#112e42" stroke="#112e42"></path><path d="M297 422.6L300 425.6L339 415.7Z" fill="#00101c" stroke="#00101c"></path><path d="M285 235.1L293 312L352 291Z" fill="#19435d" stroke="#19435d"></path><path d="M598 259.1L533 242.1L546 291Z" fill="#081a28" stroke="#081a28"></path><path d="M533 242.1L541 220.3L503 227.3Z" fill="#205a7a" stroke="#205a7a"></path><path d="M559 467.4L543 415.7L532 440.6Z" fill="#1d4e6b" stroke="#1d4e6b"></path><path d="M624 343.9L602 317.9L585 325Z" fill="#0c2435" stroke="#0c2435"></path><path d="M613 371.7L544 347.9L585 403.6Z" fill="#277297" stroke="#277297"></path><path d="M585 325L602 317.9L546 291Z" fill="#205a7a" stroke="#205a7a"></path><path d="M489 476.4L523 485.3L532 440.6Z" fill="#00101c" stroke="#00101c"></path><path d="M409 166.4L384 195.3L401 225.3Z" fill="#00101c" stroke="#00101c"></path><path d="M259 282.1L273 334.9L293 312Z" fill="#277297" stroke="#277297"></path><path d="M273 334.9L283 376.7L291 326Z" fill="#00101c" stroke="#00101c"></path><path d="M291 326L283 376.7L340 370.9Z" fill="#081a28" stroke="#081a28"></path><path d="M556 470.4L559 467.4L532 440.6Z" fill="#297ea6" stroke="#297ea6"></path><path d="M297 422.6L339 415.7L338 385.7Z" fill="#081a28" stroke="#081a28"></path><path d="M337 422.6L329 491.4L406 440.4Z" fill="#112e42" stroke="#112e42"></path><path d="M523 485.3L556 470.4L532 440.6Z" fill="#277297" stroke="#277297"></path><path d="M514 169.4L456 177.4L478 197.3Z" fill="#081a28" stroke="#081a28"></path><path d="M478 197.3L456 177.4L401 225.3Z" fill="#246688" stroke="#246688"></path><path d="M283 376.7L297 422.6L338 385.7Z" fill="#15384f" stroke="#15384f"></path><path d="M642 446.6L613 371.7L588 411.7Z" fill="#277297" stroke="#277297"></path><path d="M588 411.7L613 371.7L585 403.6Z" fill="#246688" stroke="#246688"></path><path d="M475 537.1L523 485.3L489 476.4Z" fill="#081a28" stroke="#081a28"></path><path d="M475 537.1L532 493.3L523 485.3Z" fill="#205a7a" stroke="#205a7a"></path><path d="M523 485.3L532 493.3L556 470.4Z" fill="#1d4e6b" stroke="#1d4e6b"></path><path d="M285 235.1L352 291L350 239.1Z" fill="#277297" stroke="#277297"></path><path d="M293 312L273 334.9L291 326Z" fill="#246688" stroke="#246688"></path><path d="M617 266.1L598 259.1L602 317.9Z" fill="#112e42" stroke="#112e42"></path><path d="M602 317.9L598 259.1L546 291Z" fill="#277297" stroke="#277297"></path><path d="M297 422.6L303 450.4L300 425.6Z" fill="#277297" stroke="#277297"></path><path d="M300 425.6L303 450.4L337 422.6Z" fill="#205a7a" stroke="#205a7a"></path><path d="M251 442.4L303 450.4L297 422.6Z" fill="#0c2435" stroke="#0c2435"></path><path d="M613 371.7L624 343.9L585 325Z" fill="#081a28" stroke="#081a28"></path><path d="M456 177.4L409 166.4L401 225.3Z" fill="#112e42" stroke="#112e42"></path><path d="M617 266.1L597 238.3L598 259.1Z" fill="#19435d" stroke="#19435d"></path><path d="M598 259.1L597 238.3L533 242.1Z" fill="#0c2435" stroke="#0c2435"></path><path d="M541 220.3L519 174.4L503 227.3Z" fill="#205a7a" stroke="#205a7a"></path><path d="M583 167.4L519 174.4L541 220.3Z" fill="#297ea6" stroke="#297ea6"></path><path d="M456 177.4L422 140.6L409 166.4Z" fill="#1d4e6b" stroke="#1d4e6b"></path><path d="M386 528.1L429 529.3L406 440.4Z" fill="#1d4e6b" stroke="#1d4e6b"></path><path d="M372 167.4L324 203.3L384 195.3Z" fill="#205a7a" stroke="#205a7a"></path><path d="M384 195.3L324 203.3L350 239.1Z" fill="#19435d" stroke="#19435d"></path><path d="M303 450.4L329 491.4L337 422.6Z" fill="#0c2435" stroke="#0c2435"></path><path d="M561 99.6L514 169.4L519 174.4Z" fill="#19435d" stroke="#19435d"></path><path d="M519 174.4L514 169.4L478 197.3Z" fill="#00101c" stroke="#00101c"></path><path d="M634 297L617 266.1L602 317.9Z" fill="#00101c" stroke="#00101c"></path><path d="M409 166.4L372 167.4L384 195.3Z" fill="#112e42" stroke="#112e42"></path><path d="M386 528.1L429 536.3L429 529.3Z" fill="#246688" stroke="#246688"></path><path d="M429 529.3L475 537.1L474 467.4Z" fill="#00101c" stroke="#00101c"></path><path d="M329 491.4L386 528.1L406 440.4Z" fill="#205a7a" stroke="#205a7a"></path><path d="M624 343.9L634 297L602 317.9Z" fill="#246688" stroke="#246688"></path><path d="M324 203.3L285 235.1L350 239.1Z" fill="#19435d" stroke="#19435d"></path><path d="M429 536.3L475 537.1L429 529.3Z" fill="#19435d" stroke="#19435d"></path><path d="M285 235.1L259 282.1L293 312Z" fill="#277297" stroke="#277297"></path><path d="M230 448.6L251 442.4L203 403.7Z" fill="#112e42" stroke="#112e42"></path><path d="M587 542.1L577 498.3L532 493.3Z" fill="#15384f" stroke="#15384f"></path><path d="M532 493.3L577 498.3L556 470.4Z" fill="#19435d" stroke="#19435d"></path><path d="M556 470.4L577 498.3L559 467.4Z" fill="#00101c" stroke="#00101c"></path><path d="M559 467.4L634 451.4L588 411.7Z" fill="#15384f" stroke="#15384f"></path><path d="M613 371.7L682 382.7L624 343.9Z" fill="#00101c" stroke="#00101c"></path><path d="M505 120.6L422 140.6L456 177.4Z" fill="#246688" stroke="#246688"></path><path d="M409 166.4L422 140.6L372 167.4Z" fill="#0c2435" stroke="#0c2435"></path><path d="M366 114.7L356 151.6L372 167.4Z" fill="#00101c" stroke="#00101c"></path><path d="M372 167.4L356 151.6L324 203.3Z" fill="#1d4e6b" stroke="#1d4e6b"></path><path d="M324 203.3L272 204.3L285 235.1Z" fill="#19435d" stroke="#19435d"></path><path d="M577 498.3L634 451.4L559 467.4Z" fill="#00101c" stroke="#00101c"></path><path d="M624 343.9L686 350.9L634 297Z" fill="#205a7a" stroke="#205a7a"></path><path d="M283 376.7L251 442.4L297 422.6Z" fill="#1d4e6b" stroke="#1d4e6b"></path><path d="M303 450.4L284 500.3L329 491.4Z" fill="#112e42" stroke="#112e42"></path><path d="M329 491.4L337 540.3L386 528.1Z" fill="#112e42" stroke="#112e42"></path><path d="M251 442.4L283 376.7L203 403.7Z" fill="#277297" stroke="#277297"></path><path d="M653 452.4L642 446.6L634 451.4Z" fill="#15384f" stroke="#15384f"></path><path d="M634 451.4L642 446.6L588 411.7Z" fill="#112e42" stroke="#112e42"></path><path d="M305 154.6L272 204.3L324 203.3Z" fill="#081a28" stroke="#081a28"></path><path d="M285 235.1L246 194.3L259 282.1Z" fill="#246688" stroke="#246688"></path><path d="M628 183.3L597 238.3L617 266.1Z" fill="#246688" stroke="#246688"></path><path d="M628 183.3L583 167.4L597 238.3Z" fill="#0c2435" stroke="#0c2435"></path><path d="M597 238.3L583 167.4L541 220.3Z" fill="#297ea6" stroke="#297ea6"></path><path d="M514 169.4L505 120.6L456 177.4Z" fill="#0c2435" stroke="#0c2435"></path><path d="M284 500.3L337 540.3L329 491.4Z" fill="#297ea6" stroke="#297ea6"></path><path d="M417 600L466 577.1L429 536.3Z" fill="#00101c" stroke="#00101c"></path><path d="M429 536.3L466 577.1L475 537.1Z" fill="#246688" stroke="#246688"></path><path d="M356 151.6L343 145.4L324 203.3Z" fill="#00101c" stroke="#00101c"></path><path d="M366 114.7L343 145.4L356 151.6Z" fill="#19435d" stroke="#19435d"></path><path d="M267 488.4L284 500.3L303 450.4Z" fill="#081a28" stroke="#081a28"></path><path d="M251 442.4L267 488.4L303 450.4Z" fill="#00101c" stroke="#00101c"></path><path d="M340 600L359 579.1L337 540.3Z" fill="#00101c" stroke="#00101c"></path><path d="M214 285.1L220 295L259 282.1Z" fill="#112e42" stroke="#112e42"></path><path d="M259 282.1L220 295L273 334.9Z" fill="#19435d" stroke="#19435d"></path><path d="M523 100.6L505 120.6L561 99.6Z" fill="#081a28" stroke="#081a28"></path><path d="M422 140.6L366 114.7L372 167.4Z" fill="#081a28" stroke="#081a28"></path><path d="M644 532.3L653 452.4L634 451.4Z" fill="#246688" stroke="#246688"></path><path d="M642 446.6L682 382.7L613 371.7Z" fill="#15384f" stroke="#15384f"></path><path d="M417 600L429 536.3L386 528.1Z" fill="#00101c" stroke="#00101c"></path><path d="M509 582.1L587 542.1L532 493.3Z" fill="#00101c" stroke="#00101c"></path><path d="M577 498.3L644 532.3L634 451.4Z" fill="#1d4e6b" stroke="#1d4e6b"></path><path d="M343 145.4L305 154.6L324 203.3Z" fill="#205a7a" stroke="#205a7a"></path><path d="M505 120.6L428 107.7L422 140.6Z" fill="#297ea6" stroke="#297ea6"></path><path d="M343 145.4L286 122.6L305 154.6Z" fill="#277297" stroke="#277297"></path><path d="M438 58.7L424 106.6L428 107.7Z" fill="#00101c" stroke="#00101c"></path><path d="M428 107.7L424 106.6L422 140.6Z" fill="#297ea6" stroke="#297ea6"></path><path d="M653 452.4L682 382.7L642 446.6Z" fill="#1d4e6b" stroke="#1d4e6b"></path><path d="M683 252.1L628 183.3L617 266.1Z" fill="#19435d" stroke="#19435d"></path><path d="M188 234.3L214 285.1L259 282.1Z" fill="#0c2435" stroke="#0c2435"></path><path d="M197 356.9L283 376.7L273 334.9Z" fill="#205a7a" stroke="#205a7a"></path><path d="M246 194.3L285 235.1L272 204.3Z" fill="#112e42" stroke="#112e42"></path><path d="M197 356.9L273 334.9L220 295Z" fill="#0c2435" stroke="#0c2435"></path><path d="M251 442.4L230 448.6L267 488.4Z" fill="#246688" stroke="#246688"></path><path d="M682 382.7L686 350.9L624 343.9Z" fill="#246688" stroke="#246688"></path><path d="M509 582.1L532 493.3L475 537.1Z" fill="#205a7a" stroke="#205a7a"></path><path d="M683 252.1L617 266.1L634 297Z" fill="#205a7a" stroke="#205a7a"></path><path d="M561 99.6L505 120.6L514 169.4Z" fill="#277297" stroke="#277297"></path><path d="M424 106.6L366 114.7L422 140.6Z" fill="#0c2435" stroke="#0c2435"></path><path d="M466 577.1L509 582.1L475 537.1Z" fill="#246688" stroke="#246688"></path><path d="M193 310L197 356.9L220 295Z" fill="#0c2435" stroke="#0c2435"></path><path d="M682 382.7L695 359.7L686 350.9Z" fill="#297ea6" stroke="#297ea6"></path><path d="M692 270L683 252.1L634 297Z" fill="#15384f" stroke="#15384f"></path><path d="M698 358.9L695 359.7L682 382.7Z" fill="#081a28" stroke="#081a28"></path><path d="M197 356.9L203 403.7L283 376.7Z" fill="#297ea6" stroke="#297ea6"></path><path d="M286 554.1L337 540.3L284 500.3Z" fill="#1d4e6b" stroke="#1d4e6b"></path><path d="M337 540.3L359 579.1L386 528.1Z" fill="#297ea6" stroke="#297ea6"></path><path d="M466 577.1L487 600L509 582.1Z" fill="#0c2435" stroke="#0c2435"></path><path d="M246 169.4L246 194.3L272 204.3Z" fill="#19435d" stroke="#19435d"></path><path d="M731 420.6L698 358.9L682 382.7Z" fill="#205a7a" stroke="#205a7a"></path><path d="M695 359.7L698 358.9L686 350.9Z" fill="#297ea6" stroke="#297ea6"></path><path d="M692 270L634 297L686 350.9Z" fill="#19435d" stroke="#19435d"></path><path d="M198 280.1L193 310L214 285.1Z" fill="#297ea6" stroke="#297ea6"></path><path d="M214 285.1L193 310L220 295Z" fill="#112e42" stroke="#112e42"></path><path d="M561 99.6L519 174.4L583 167.4Z" fill="#0c2435" stroke="#0c2435"></path><path d="M505 120.6L468 80.7L428 107.7Z" fill="#112e42" stroke="#112e42"></path><path d="M188 234.3L198 280.1L214 285.1Z" fill="#19435d" stroke="#19435d"></path><path d="M359 579.1L417 600L386 528.1Z" fill="#19435d" stroke="#19435d"></path><path d="M707 269.1L692 270L733 324Z" fill="#0c2435" stroke="#0c2435"></path><path d="M523 100.6L515 96.7L505 120.6Z" fill="#297ea6" stroke="#297ea6"></path><path d="M417 600L478 600L466 577.1Z" fill="#112e42" stroke="#112e42"></path><path d="M509 582.1L539 600L587 542.1Z" fill="#081a28" stroke="#081a28"></path><path d="M638 154.4L613 148.6L628 183.3Z" fill="#246688" stroke="#246688"></path><path d="M628 183.3L613 148.6L583 167.4Z" fill="#112e42" stroke="#112e42"></path><path d="M478 600L487 600L466 577.1Z" fill="#1d4e6b" stroke="#1d4e6b"></path><path d="M221 490.3L257 523.3L267 488.4Z" fill="#112e42" stroke="#112e42"></path><path d="M267 488.4L257 523.3L284 500.3Z" fill="#081a28" stroke="#081a28"></path><path d="M221 490.3L267 488.4L230 448.6Z" fill="#297ea6" stroke="#297ea6"></path><path d="M176 387.7L195 413.6L203 403.7Z" fill="#0c2435" stroke="#0c2435"></path><path d="M203 403.7L195 413.6L230 448.6Z" fill="#00101c" stroke="#00101c"></path><path d="M185 367.9L203 403.7L197 356.9Z" fill="#1d4e6b" stroke="#1d4e6b"></path><path d="M163 313L185 367.9L197 356.9Z" fill="#1d4e6b" stroke="#1d4e6b"></path><path d="M257 523.3L286 554.1L284 500.3Z" fill="#246688" stroke="#246688"></path><path d="M359 579.1L340 600L417 600Z" fill="#15384f" stroke="#15384f"></path><path d="M515 96.7L468 80.7L505 120.6Z" fill="#1d4e6b" stroke="#1d4e6b"></path><path d="M424 106.6L375 52.9L366 114.7Z" fill="#297ea6" stroke="#297ea6"></path><path d="M286 122.6L246 169.4L305 154.6Z" fill="#19435d" stroke="#19435d"></path><path d="M305 154.6L246 169.4L272 204.3Z" fill="#1d4e6b" stroke="#1d4e6b"></path><path d="M246 194.3L188 234.3L259 282.1Z" fill="#19435d" stroke="#19435d"></path><path d="M176 455.4L221 490.3L230 448.6Z" fill="#277297" stroke="#277297"></path><path d="M257 523.3L277 560.1L286 554.1Z" fill="#081a28" stroke="#081a28"></path><path d="M652 148.4L638 154.4L628 183.3Z" fill="#081a28" stroke="#081a28"></path><path d="M613 148.6L561 99.6L583 167.4Z" fill="#297ea6" stroke="#297ea6"></path><path d="M523 100.6L542 50.9L515 96.7Z" fill="#297ea6" stroke="#297ea6"></path><path d="M652 148.4L628 183.3L685 189.3Z" fill="#205a7a" stroke="#205a7a"></path><path d="M581 61.7L561 99.6L644 77.7Z" fill="#081a28" stroke="#081a28"></path><path d="M479 53.9L438 58.7L468 80.7Z" fill="#19435d" stroke="#19435d"></path><path d="M733 324L692 270L686 350.9Z" fill="#205a7a" stroke="#205a7a"></path><path d="M692 270L707 269.1L683 252.1Z" fill="#081a28" stroke="#081a28"></path><path d="M487 600L539 600L509 582.1Z" fill="#1d4e6b" stroke="#1d4e6b"></path><path d="M622 555.1L644 532.3L587 542.1Z" fill="#205a7a" stroke="#205a7a"></path><path d="M587 542.1L644 532.3L577 498.3Z" fill="#246688" stroke="#246688"></path><path d="M653 452.4L702 454.6L682 382.7Z" fill="#081a28" stroke="#081a28"></path><path d="M185 367.9L176 387.7L203 403.7Z" fill="#246688" stroke="#246688"></path><path d="M195 413.6L176 455.4L230 448.6Z" fill="#1d4e6b" stroke="#1d4e6b"></path><path d="M143 382.7L176 387.7L185 367.9Z" fill="#205a7a" stroke="#205a7a"></path><path d="M163 313L197 356.9L193 310Z" fill="#00101c" stroke="#00101c"></path><path d="M294 88.7L286 122.6L343 145.4Z" fill="#19435d" stroke="#19435d"></path><path d="M294 88.7L343 145.4L366 114.7Z" fill="#246688" stroke="#246688"></path><path d="M210 531.1L277 560.1L257 523.3Z" fill="#205a7a" stroke="#205a7a"></path><path d="M307 600L340 600L337 540.3Z" fill="#15384f" stroke="#15384f"></path><path d="M597 600L622 555.1L587 542.1Z" fill="#1d4e6b" stroke="#1d4e6b"></path><path d="M203 173.4L227 176.4L229 136.6Z" fill="#0c2435" stroke="#0c2435"></path><path d="M246 169.4L227 176.4L246 194.3Z" fill="#081a28" stroke="#081a28"></path><path d="M307 600L337 540.3L286 554.1Z" fill="#246688" stroke="#246688"></path><path d="M715 502.3L702 454.6L653 452.4Z" fill="#00101c" stroke="#00101c"></path><path d="M698 358.9L733 324L686 350.9Z" fill="#297ea6" stroke="#297ea6"></path><path d="M227 176.4L188 234.3L246 194.3Z" fill="#15384f" stroke="#15384f"></path><path d="M157 287.1L163 313L193 310Z" fill="#15384f" stroke="#15384f"></path><path d="M685 189.3L628 183.3L683 252.1Z" fill="#00101c" stroke="#00101c"></path><path d="M638 154.4L652 148.4L613 148.6Z" fill="#081a28" stroke="#081a28"></path><path d="M157 287.1L193 310L198 280.1Z" fill="#297ea6" stroke="#297ea6"></path><path d="M740 188.3L685 189.3L683 252.1Z" fill="#081a28" stroke="#081a28"></path><path d="M479 53.9L468 80.7L515 96.7Z" fill="#297ea6" stroke="#297ea6"></path><path d="M468 80.7L438 58.7L428 107.7Z" fill="#246688" stroke="#246688"></path><path d="M759 349.9L733 324L698 358.9Z" fill="#081a28" stroke="#081a28"></path><path d="M707 269.1L740 188.3L683 252.1Z" fill="#246688" stroke="#246688"></path><path d="M256 600L307 600L277 560.1Z" fill="#112e42" stroke="#112e42"></path><path d="M277 560.1L307 600L286 554.1Z" fill="#081a28" stroke="#081a28"></path><path d="M138 445.6L176 455.4L195 413.6Z" fill="#081a28" stroke="#081a28"></path><path d="M221 490.3L210 531.1L257 523.3Z" fill="#00101c" stroke="#00101c"></path><path d="M138 445.6L195 413.6L176 387.7Z" fill="#19435d" stroke="#19435d"></path><path d="M542 50.9L479 53.9L515 96.7Z" fill="#15384f" stroke="#15384f"></path><path d="M542 50.9L523 100.6L561 99.6Z" fill="#297ea6" stroke="#297ea6"></path><path d="M188 234.3L157 287.1L198 280.1Z" fill="#081a28" stroke="#081a28"></path><path d="M163 313L143 382.7L185 367.9Z" fill="#15384f" stroke="#15384f"></path><path d="M745 475.4L731 420.6L702 454.6Z" fill="#15384f" stroke="#15384f"></path><path d="M702 454.6L731 420.6L682 382.7Z" fill="#081a28" stroke="#081a28"></path><path d="M664 571.1L690 539.3L644 532.3Z" fill="#1d4e6b" stroke="#1d4e6b"></path><path d="M644 532.3L715 502.3L653 452.4Z" fill="#277297" stroke="#277297"></path><path d="M539 600L597 600L587 542.1Z" fill="#081a28" stroke="#081a28"></path><path d="M227 176.4L203 173.4L188 234.3Z" fill="#246688" stroke="#246688"></path><path d="M112 264.1L128 315.9L157 287.1Z" fill="#00101c" stroke="#00101c"></path><path d="M229 136.6L227 176.4L246 169.4Z" fill="#15384f" stroke="#15384f"></path><path d="M375 52.9L294 88.7L366 114.7Z" fill="#00101c" stroke="#00101c"></path><path d="M286 122.6L229 136.6L246 169.4Z" fill="#0c2435" stroke="#0c2435"></path><path d="M400 15.9L375 52.9L438 58.7Z" fill="#00101c" stroke="#00101c"></path><path d="M438 58.7L375 52.9L424 106.6Z" fill="#0c2435" stroke="#0c2435"></path><path d="M223 94.7L229 136.6L286 122.6Z" fill="#246688" stroke="#246688"></path><path d="M191 531.3L210 531.1L221 490.3Z" fill="#205a7a" stroke="#205a7a"></path><path d="M128 315.9L143 382.7L163 313Z" fill="#205a7a" stroke="#205a7a"></path><path d="M161 511.3L191 531.3L221 490.3Z" fill="#15384f" stroke="#15384f"></path><path d="M597 600L617 600L622 555.1Z" fill="#00101c" stroke="#00101c"></path><path d="M581 61.7L542 50.9L561 99.6Z" fill="#15384f" stroke="#15384f"></path><path d="M479 53.9L471 29.9L438 58.7Z" fill="#246688" stroke="#246688"></path><path d="M690 539.3L715 502.3L644 532.3Z" fill="#297ea6" stroke="#297ea6"></path><path d="M664 571.1L644 532.3L622 555.1Z" fill="#246688" stroke="#246688"></path><path d="M776 389.7L759 349.9L731 420.6Z" fill="#0c2435" stroke="#0c2435"></path><path d="M731 420.6L759 349.9L698 358.9Z" fill="#297ea6" stroke="#297ea6"></path><path d="M772 263.1L740 188.3L707 269.1Z" fill="#19435d" stroke="#19435d"></path><path d="M644 77.7L561 99.6L613 148.6Z" fill="#15384f" stroke="#15384f"></path><path d="M651 600L664 571.1L622 555.1Z" fill="#205a7a" stroke="#205a7a"></path><path d="M474 0L471 29.9L501 0Z" fill="#0c2435" stroke="#0c2435"></path><path d="M501 0L471 29.9L479 53.9Z" fill="#112e42" stroke="#112e42"></path><path d="M161 511.3L221 490.3L176 455.4Z" fill="#15384f" stroke="#15384f"></path><path d="M210 531.1L256 600L277 560.1Z" fill="#1d4e6b" stroke="#1d4e6b"></path><path d="M685 189.3L680 130.6L652 148.4Z" fill="#1d4e6b" stroke="#1d4e6b"></path><path d="M652 148.4L644 77.7L613 148.6Z" fill="#297ea6" stroke="#297ea6"></path><path d="M727 149.6L680 130.6L685 189.3Z" fill="#081a28" stroke="#081a28"></path><path d="M215 600L256 600L210 531.1Z" fill="#15384f" stroke="#15384f"></path><path d="M112 264.1L157 287.1L188 234.3Z" fill="#15384f" stroke="#15384f"></path><path d="M157 287.1L128 315.9L163 313Z" fill="#15384f" stroke="#15384f"></path><path d="M143 382.7L138 445.6L176 387.7Z" fill="#081a28" stroke="#081a28"></path><path d="M118 419.6L138 445.6L143 382.7Z" fill="#112e42" stroke="#112e42"></path><path d="M755 491.4L745 475.4L715 502.3Z" fill="#112e42" stroke="#112e42"></path><path d="M715 502.3L745 475.4L702 454.6Z" fill="#19435d" stroke="#19435d"></path><path d="M755 491.4L715 502.3L758 515.3Z" fill="#0c2435" stroke="#0c2435"></path><path d="M617 600L651 600L622 555.1Z" fill="#112e42" stroke="#112e42"></path><path d="M748 554.1L715 502.3L690 539.3Z" fill="#205a7a" stroke="#205a7a"></path><path d="M229 136.6L186 143.6L203 173.4Z" fill="#0c2435" stroke="#0c2435"></path><path d="M203 173.4L153 186.3L188 234.3Z" fill="#277297" stroke="#277297"></path><path d="M223 94.7L186 143.6L229 136.6Z" fill="#15384f" stroke="#15384f"></path><path d="M138 445.6L161 511.3L176 455.4Z" fill="#19435d" stroke="#19435d"></path><path d="M201 600L215 600L210 531.1Z" fill="#15384f" stroke="#15384f"></path><path d="M414 0L400 15.9L438 58.7Z" fill="#112e42" stroke="#112e42"></path><path d="M375 52.9L334 28.9L294 88.7Z" fill="#15384f" stroke="#15384f"></path><path d="M245 74.7L223 94.7L286 122.6Z" fill="#19435d" stroke="#19435d"></path><path d="M680 130.6L644 77.7L652 148.4Z" fill="#246688" stroke="#246688"></path><path d="M581 61.7L557 28.9L542 50.9Z" fill="#00101c" stroke="#00101c"></path><path d="M772 263.1L707 269.1L733 324Z" fill="#15384f" stroke="#15384f"></path><path d="M691 34.9L649 56.7L644 77.7Z" fill="#081a28" stroke="#081a28"></path><path d="M164 150.4L153 186.3L203 173.4Z" fill="#0c2435" stroke="#0c2435"></path><path d="M786 403.6L776 389.7L731 420.6Z" fill="#277297" stroke="#277297"></path><path d="M759 349.9L778 307L733 324Z" fill="#205a7a" stroke="#205a7a"></path><path d="M793 306L778 307L796 365.9Z" fill="#277297" stroke="#277297"></path><path d="M568 0L557 28.9L618 0Z" fill="#0c2435" stroke="#0c2435"></path><path d="M471 29.9L414 0L438 58.7Z" fill="#277297" stroke="#277297"></path><path d="M245 74.7L286 122.6L294 88.7Z" fill="#081a28" stroke="#081a28"></path><path d="M186 143.6L164 150.4L203 173.4Z" fill="#112e42" stroke="#112e42"></path><path d="M347 0L334 28.9L375 52.9Z" fill="#205a7a" stroke="#205a7a"></path><path d="M778 307L772 263.1L733 324Z" fill="#19435d" stroke="#19435d"></path><path d="M85 393.7L118 419.6L143 382.7Z" fill="#297ea6" stroke="#297ea6"></path><path d="M138 445.6L113 496.4L161 511.3Z" fill="#0c2435" stroke="#0c2435"></path><path d="M246 67.9L245 74.7L294 88.7Z" fill="#205a7a" stroke="#205a7a"></path><path d="M744 178.4L739 171.4L740 188.3Z" fill="#205a7a" stroke="#205a7a"></path><path d="M740 188.3L739 171.4L685 189.3Z" fill="#19435d" stroke="#19435d"></path><path d="M794 190.3L744 178.4L740 188.3Z" fill="#00101c" stroke="#00101c"></path><path d="M292 0L246 67.9L294 88.7Z" fill="#297ea6" stroke="#297ea6"></path><path d="M245 74.7L241 68.9L223 94.7Z" fill="#0c2435" stroke="#0c2435"></path><path d="M736 105.7L727 149.6L753 108.6Z" fill="#277297" stroke="#277297"></path><path d="M739 171.4L727 149.6L685 189.3Z" fill="#277297" stroke="#277297"></path><path d="M758 515.3L715 502.3L748 554.1Z" fill="#1d4e6b" stroke="#1d4e6b"></path><path d="M745 475.4L786 403.6L731 420.6Z" fill="#246688" stroke="#246688"></path><path d="M153 144.6L186 143.6L163 89.7Z" fill="#19435d" stroke="#19435d"></path><path d="M153 144.6L164 150.4L186 143.6Z" fill="#081a28" stroke="#081a28"></path><path d="M153 186.3L112 264.1L188 234.3Z" fill="#246688" stroke="#246688"></path><path d="M74 329L85 393.7L143 382.7Z" fill="#15384f" stroke="#15384f"></path><path d="M100 191.3L112 264.1L153 186.3Z" fill="#205a7a" stroke="#205a7a"></path><path d="M197 63.9L241 68.9L209 0Z" fill="#0c2435" stroke="#0c2435"></path><path d="M246 67.9L241 68.9L245 74.7Z" fill="#00101c" stroke="#00101c"></path><path d="M201 600L210 531.1L191 531.3Z" fill="#19435d" stroke="#19435d"></path><path d="M825 424.6L786 403.6L745 475.4Z" fill="#205a7a" stroke="#205a7a"></path><path d="M796 365.9L778 307L759 349.9Z" fill="#0c2435" stroke="#0c2435"></path><path d="M118 419.6L115 442.4L138 445.6Z" fill="#205a7a" stroke="#205a7a"></path><path d="M163 577.1L201 600L191 531.3Z" fill="#277297" stroke="#277297"></path><path d="M85 393.7L115 442.4L118 419.6Z" fill="#297ea6" stroke="#297ea6"></path><path d="M501 0L479 53.9L510 0Z" fill="#205a7a" stroke="#205a7a"></path><path d="M400 15.9L347 0L375 52.9Z" fill="#246688" stroke="#246688"></path><path d="M474 0L414 0L471 29.9Z" fill="#19435d" stroke="#19435d"></path><path d="M510 0L479 53.9L542 50.9Z" fill="#00101c" stroke="#00101c"></path><path d="M793 306L782 250.1L772 263.1Z" fill="#081a28" stroke="#081a28"></path><path d="M772 263.1L782 250.1L740 188.3Z" fill="#297ea6" stroke="#297ea6"></path><path d="M793 306L772 263.1L778 307Z" fill="#297ea6" stroke="#297ea6"></path><path d="M796 365.9L759 349.9L776 389.7Z" fill="#297ea6" stroke="#297ea6"></path><path d="M568 0L510 0L557 28.9Z" fill="#297ea6" stroke="#297ea6"></path><path d="M557 28.9L510 0L542 50.9Z" fill="#081a28" stroke="#081a28"></path><path d="M786 403.6L796 365.9L776 389.7Z" fill="#00101c" stroke="#00101c"></path><path d="M691 34.9L644 77.7L680 130.6Z" fill="#00101c" stroke="#00101c"></path><path d="M644 77.7L649 56.7L581 61.7Z" fill="#081a28" stroke="#081a28"></path><path d="M163 577.1L191 531.3L161 511.3Z" fill="#15384f" stroke="#15384f"></path><path d="M163 89.7L186 143.6L223 94.7Z" fill="#246688" stroke="#246688"></path><path d="M164 150.4L153 144.6L153 186.3Z" fill="#1d4e6b" stroke="#1d4e6b"></path><path d="M74 329L92 312.9L64 293Z" fill="#205a7a" stroke="#205a7a"></path><path d="M112 264.1L92 312.9L128 315.9Z" fill="#1d4e6b" stroke="#1d4e6b"></path><path d="M748 554.1L690 539.3L726 600Z" fill="#297ea6" stroke="#297ea6"></path><path d="M825 424.6L821 409.7L786 403.6Z" fill="#1d4e6b" stroke="#1d4e6b"></path><path d="M786 403.6L821 409.7L796 365.9Z" fill="#277297" stroke="#277297"></path><path d="M414 0L347 0L400 15.9Z" fill="#246688" stroke="#246688"></path><path d="M334 28.9L292 0L294 88.7Z" fill="#15384f" stroke="#15384f"></path><path d="M74 329L143 382.7L128 315.9Z" fill="#15384f" stroke="#15384f"></path><path d="M107 483.3L113 496.4L138 445.6Z" fill="#0c2435" stroke="#0c2435"></path><path d="M618 0L557 28.9L581 61.7Z" fill="#00101c" stroke="#00101c"></path><path d="M107 483.3L138 445.6L115 442.4Z" fill="#246688" stroke="#246688"></path><path d="M73 494.4L107 483.3L115 442.4Z" fill="#00101c" stroke="#00101c"></path><path d="M158 577.1L163 577.1L161 511.3Z" fill="#246688" stroke="#246688"></path><path d="M650 30.9L634 29.9L649 56.7Z" fill="#246688" stroke="#246688"></path><path d="M649 56.7L634 29.9L581 61.7Z" fill="#19435d" stroke="#19435d"></path><path d="M726 600L690 539.3L664 571.1Z" fill="#00101c" stroke="#00101c"></path><path d="M86 529.1L158 577.1L161 511.3Z" fill="#112e42" stroke="#112e42"></path><path d="M163 577.1L156 600L201 600Z" fill="#1d4e6b" stroke="#1d4e6b"></path><path d="M64 293L92 312.9L112 264.1Z" fill="#00101c" stroke="#00101c"></path><path d="M92 312.9L74 329L128 315.9Z" fill="#205a7a" stroke="#205a7a"></path><path d="M691 34.9L650 30.9L649 56.7Z" fill="#297ea6" stroke="#297ea6"></path><path d="M634 29.9L618 0L581 61.7Z" fill="#297ea6" stroke="#297ea6"></path><path d="M246 0L241 68.9L246 67.9Z" fill="#112e42" stroke="#112e42"></path><path d="M241 68.9L197 63.9L223 94.7Z" fill="#112e42" stroke="#112e42"></path><path d="M727 149.6L736 105.7L680 130.6Z" fill="#277297" stroke="#277297"></path><path d="M753 108.6L727 149.6L739 171.4Z" fill="#081a28" stroke="#081a28"></path><path d="M807 153.6L739 171.4L744 178.4Z" fill="#00101c" stroke="#00101c"></path><path d="M347 0L292 0L334 28.9Z" fill="#00101c" stroke="#00101c"></path><path d="M116 151.6L153 186.3L153 144.6Z" fill="#081a28" stroke="#081a28"></path><path d="M116 151.6L100 191.3L153 186.3Z" fill="#081a28" stroke="#081a28"></path><path d="M651 600L726 600L664 571.1Z" fill="#081a28" stroke="#081a28"></path><path d="M755 491.4L830 483.3L745 475.4Z" fill="#15384f" stroke="#15384f"></path><path d="M825 424.6L830 483.3L839 447.4Z" fill="#0c2435" stroke="#0c2435"></path><path d="M825 424.6L745 475.4L830 483.3Z" fill="#297ea6" stroke="#297ea6"></path><path d="M796 365.9L858 301L793 306Z" fill="#00101c" stroke="#00101c"></path><path d="M809 188.3L794 190.3L782 250.1Z" fill="#15384f" stroke="#15384f"></path><path d="M809 188.3L859 265.1L825 177.4Z" fill="#00101c" stroke="#00101c"></path><path d="M782 250.1L794 190.3L740 188.3Z" fill="#19435d" stroke="#19435d"></path><path d="M197 63.9L163 89.7L223 94.7Z" fill="#277297" stroke="#277297"></path><path d="M152 91.7L116 151.6L153 144.6Z" fill="#277297" stroke="#277297"></path><path d="M661 0L618 0L634 29.9Z" fill="#15384f" stroke="#15384f"></path><path d="M661 0L634 29.9L650 30.9Z" fill="#0c2435" stroke="#0c2435"></path><path d="M46 227.1L64 293L112 264.1Z" fill="#081a28" stroke="#081a28"></path><path d="M38 366.9L60 399.7L85 393.7Z" fill="#205a7a" stroke="#205a7a"></path><path d="M88 600L156 600L158 577.1Z" fill="#00101c" stroke="#00101c"></path><path d="M158 577.1L156 600L163 577.1Z" fill="#15384f" stroke="#15384f"></path><path d="M86 529.1L161 511.3L113 496.4Z" fill="#1d4e6b" stroke="#1d4e6b"></path><path d="M807 153.6L753 108.6L739 171.4Z" fill="#205a7a" stroke="#205a7a"></path><path d="M736 105.7L691 34.9L680 130.6Z" fill="#15384f" stroke="#15384f"></path><path d="M830 483.3L758 515.3L812 574.1Z" fill="#246688" stroke="#246688"></path><path d="M809 188.3L782 250.1L859 265.1Z" fill="#19435d" stroke="#19435d"></path><path d="M103 70.7L152 91.7L132 14.9Z" fill="#15384f" stroke="#15384f"></path><path d="M163 89.7L152 91.7L153 144.6Z" fill="#297ea6" stroke="#297ea6"></path><path d="M152 91.7L163 89.7L132 14.9Z" fill="#19435d" stroke="#19435d"></path><path d="M38 366.9L85 393.7L74 329Z" fill="#205a7a" stroke="#205a7a"></path><path d="M85 393.7L60 399.7L115 442.4Z" fill="#081a28" stroke="#081a28"></path><path d="M107 483.3L73 494.4L113 496.4Z" fill="#246688" stroke="#246688"></path><path d="M769 51.9L691 34.9L736 105.7Z" fill="#19435d" stroke="#19435d"></path><path d="M794 190.3L807 153.6L744 178.4Z" fill="#297ea6" stroke="#297ea6"></path><path d="M848 413.6L796 365.9L821 409.7Z" fill="#0c2435" stroke="#0c2435"></path><path d="M292 0L247 0L246 67.9Z" fill="#15384f" stroke="#15384f"></path><path d="M247 0L246 0L246 67.9Z" fill="#1d4e6b" stroke="#1d4e6b"></path><path d="M60 399.7L73 494.4L115 442.4Z" fill="#0c2435" stroke="#0c2435"></path><path d="M726 600L757 600L748 554.1Z" fill="#112e42" stroke="#112e42"></path><path d="M73 494.4L86 529.1L113 496.4Z" fill="#15384f" stroke="#15384f"></path><path d="M691 34.9L661 0L650 30.9Z" fill="#1d4e6b" stroke="#1d4e6b"></path><path d="M830 483.3L755 491.4L758 515.3Z" fill="#19435d" stroke="#19435d"></path><path d="M825 424.6L848 413.6L821 409.7Z" fill="#246688" stroke="#246688"></path><path d="M839 447.4L848 413.6L825 424.6Z" fill="#19435d" stroke="#19435d"></path><path d="M794 578.1L758 515.3L748 554.1Z" fill="#277297" stroke="#277297"></path><path d="M839 447.4L868 413.7L848 413.6Z" fill="#112e42" stroke="#112e42"></path><path d="M825 177.4L807 153.6L809 188.3Z" fill="#277297" stroke="#277297"></path><path d="M809 188.3L807 153.6L794 190.3Z" fill="#246688" stroke="#246688"></path><path d="M753 108.6L777 69.7L736 105.7Z" fill="#297ea6" stroke="#297ea6"></path><path d="M691 34.9L736 0L661 0Z" fill="#00101c" stroke="#00101c"></path><path d="M0 313.9L38 366.9L74 329Z" fill="#246688" stroke="#246688"></path><path d="M60 399.7L36 402.6L73 494.4Z" fill="#081a28" stroke="#081a28"></path><path d="M58 187.3L59 198.4L100 191.3Z" fill="#1d4e6b" stroke="#1d4e6b"></path><path d="M100 191.3L46 227.1L112 264.1Z" fill="#246688" stroke="#246688"></path><path d="M0 313.9L0 357.7L38 366.9Z" fill="#081a28" stroke="#081a28"></path><path d="M58 187.3L100 191.3L116 151.6Z" fill="#0c2435" stroke="#0c2435"></path><path d="M38 366.9L36 402.6L60 399.7Z" fill="#297ea6" stroke="#297ea6"></path><path d="M73 494.4L51 502.3L86 529.1Z" fill="#277297" stroke="#277297"></path><path d="M859 265.1L782 250.1L793 306Z" fill="#19435d" stroke="#19435d"></path><path d="M884 354.9L858 301L796 365.9Z" fill="#19435d" stroke="#19435d"></path><path d="M59 198.4L46 227.1L100 191.3Z" fill="#0c2435" stroke="#0c2435"></path><path d="M246 0L209 0L241 68.9Z" fill="#1d4e6b" stroke="#1d4e6b"></path><path d="M36 106.6L58 187.3L116 151.6Z" fill="#1d4e6b" stroke="#1d4e6b"></path><path d="M103 70.7L116 151.6L152 91.7Z" fill="#112e42" stroke="#112e42"></path><path d="M59 198.4L21 193.4L46 227.1Z" fill="#00101c" stroke="#00101c"></path><path d="M757 600L794 578.1L748 554.1Z" fill="#081a28" stroke="#081a28"></path><path d="M858 301L859 265.1L793 306Z" fill="#277297" stroke="#277297"></path><path d="M0 471.4L51 502.3L73 494.4Z" fill="#00101c" stroke="#00101c"></path><path d="M86 529.1L88 600L158 577.1Z" fill="#081a28" stroke="#081a28"></path><path d="M900 418.6L868 413.7L900 484.4Z" fill="#15384f" stroke="#15384f"></path><path d="M848 413.6L884 354.9L796 365.9Z" fill="#19435d" stroke="#19435d"></path><path d="M858 301L900 316.9L859 265.1Z" fill="#277297" stroke="#277297"></path><path d="M859 492.4L839 447.4L830 483.3Z" fill="#19435d" stroke="#19435d"></path><path d="M812 67.7L753 108.6L807 153.6Z" fill="#15384f" stroke="#15384f"></path><path d="M812 67.7L777 69.7L753 108.6Z" fill="#297ea6" stroke="#297ea6"></path><path d="M848 119.6L828 145.4L900 146.6Z" fill="#081a28" stroke="#081a28"></path><path d="M825 177.4L828 145.4L807 153.6Z" fill="#19435d" stroke="#19435d"></path><path d="M816 600L812 574.1L794 578.1Z" fill="#277297" stroke="#277297"></path><path d="M794 578.1L812 574.1L758 515.3Z" fill="#00101c" stroke="#00101c"></path><path d="M780 60.9L769 51.9L777 69.7Z" fill="#277297" stroke="#277297"></path><path d="M777 69.7L769 51.9L736 105.7Z" fill="#297ea6" stroke="#297ea6"></path><path d="M868 413.7L884 354.9L848 413.6Z" fill="#19435d" stroke="#19435d"></path><path d="M885 188.3L828 145.4L825 177.4Z" fill="#205a7a" stroke="#205a7a"></path><path d="M812 67.7L780 60.9L777 69.7Z" fill="#246688" stroke="#246688"></path><path d="M860 530.3L859 492.4L830 483.3Z" fill="#112e42" stroke="#112e42"></path><path d="M900 387.7L900 326L884 354.9Z" fill="#15384f" stroke="#15384f"></path><path d="M132 14.9L163 89.7L197 63.9Z" fill="#0c2435" stroke="#0c2435"></path><path d="M47 581.1L88 600L86 529.1Z" fill="#15384f" stroke="#15384f"></path><path d="M38 366.9L0 357.7L36 402.6Z" fill="#19435d" stroke="#19435d"></path><path d="M36 402.6L0 471.4L73 494.4Z" fill="#277297" stroke="#277297"></path><path d="M0 313.9L74 329L64 293Z" fill="#246688" stroke="#246688"></path><path d="M0 313.9L64 293L0 304Z" fill="#15384f" stroke="#15384f"></path><path d="M64 293L46 227.1L0 284.1Z" fill="#297ea6" stroke="#297ea6"></path><path d="M0 304L64 293L0 284.1Z" fill="#15384f" stroke="#15384f"></path><path d="M0 284.1L46 227.1L0 229.3Z" fill="#0c2435" stroke="#0c2435"></path><path d="M757 600L816 600L794 578.1Z" fill="#205a7a" stroke="#205a7a"></path><path d="M812 574.1L860 530.3L830 483.3Z" fill="#19435d" stroke="#19435d"></path><path d="M21 193.4L59 198.4L58 187.3Z" fill="#1d4e6b" stroke="#1d4e6b"></path><path d="M761 0L736 0L769 51.9Z" fill="#1d4e6b" stroke="#1d4e6b"></path><path d="M769 51.9L736 0L691 34.9Z" fill="#0c2435" stroke="#0c2435"></path><path d="M0 153.4L21 193.4L58 187.3Z" fill="#205a7a" stroke="#205a7a"></path><path d="M0 357.7L0 422.6L36 402.6Z" fill="#19435d" stroke="#19435d"></path><path d="M51 502.3L47 581.1L86 529.1Z" fill="#297ea6" stroke="#297ea6"></path><path d="M856 562.1L860 530.3L812 574.1Z" fill="#112e42" stroke="#112e42"></path><path d="M900 387.7L884 354.9L868 413.7Z" fill="#246688" stroke="#246688"></path><path d="M900 387.7L868 413.7L900 418.6Z" fill="#15384f" stroke="#15384f"></path><path d="M884 354.9L900 326L858 301Z" fill="#15384f" stroke="#15384f"></path><path d="M900 326L900 316.9L858 301Z" fill="#1d4e6b" stroke="#1d4e6b"></path><path d="M209 0L132 14.9L197 63.9Z" fill="#19435d" stroke="#19435d"></path><path d="M103 70.7L68 85.7L116 151.6Z" fill="#277297" stroke="#277297"></path><path d="M868 413.7L839 447.4L900 484.4Z" fill="#277297" stroke="#277297"></path><path d="M99 22.9L68 85.7L103 70.7Z" fill="#112e42" stroke="#112e42"></path><path d="M848 119.6L812 67.7L828 145.4Z" fill="#112e42" stroke="#112e42"></path><path d="M828 145.4L812 67.7L807 153.6Z" fill="#00101c" stroke="#00101c"></path><path d="M786 0L761 0L769 51.9Z" fill="#0c2435" stroke="#0c2435"></path><path d="M900 484.4L839 447.4L859 492.4Z" fill="#112e42" stroke="#112e42"></path><path d="M21 193.4L0 229.3L46 227.1Z" fill="#0c2435" stroke="#0c2435"></path><path d="M0 153.4L0 229.3L21 193.4Z" fill="#0c2435" stroke="#0c2435"></path><path d="M885 188.3L825 177.4L859 265.1Z" fill="#205a7a" stroke="#205a7a"></path><path d="M0 422.6L0 471.4L36 402.6Z" fill="#15384f" stroke="#15384f"></path><path d="M0 536.1L47 581.1L51 502.3Z" fill="#19435d" stroke="#19435d"></path><path d="M816 600L856 562.1L812 574.1Z" fill="#19435d" stroke="#19435d"></path><path d="M900 488.3L900 484.4L859 492.4Z" fill="#15384f" stroke="#15384f"></path><path d="M900 316.9L900 245.1L859 265.1Z" fill="#0c2435" stroke="#0c2435"></path><path d="M900 210.3L885 188.3L859 265.1Z" fill="#0c2435" stroke="#0c2435"></path><path d="M786 0L769 51.9L780 60.9Z" fill="#205a7a" stroke="#205a7a"></path><path d="M0 600L48 600L47 581.1Z" fill="#1d4e6b" stroke="#1d4e6b"></path><path d="M47 581.1L48 600L88 600Z" fill="#112e42" stroke="#112e42"></path><path d="M132 14.9L99 22.9L103 70.7Z" fill="#205a7a" stroke="#205a7a"></path><path d="M900 245.1L900 210.3L859 265.1Z" fill="#00101c" stroke="#00101c"></path><path d="M885 188.3L900 146.6L828 145.4Z" fill="#0c2435" stroke="#0c2435"></path><path d="M0 99.7L36 106.6L0 51.9Z" fill="#205a7a" stroke="#205a7a"></path><path d="M68 85.7L36 106.6L116 151.6Z" fill="#0c2435" stroke="#0c2435"></path><path d="M900 488.3L859 492.4L860 530.3Z" fill="#15384f" stroke="#15384f"></path><path d="M900 583.1L900 488.3L860 530.3Z" fill="#19435d" stroke="#19435d"></path><path d="M0 471.4L0 513.3L51 502.3Z" fill="#297ea6" stroke="#297ea6"></path><path d="M132 14.9L116 0L99 22.9Z" fill="#081a28" stroke="#081a28"></path><path d="M0 147.6L58 187.3L36 106.6Z" fill="#19435d" stroke="#19435d"></path><path d="M209 0L116 0L132 14.9Z" fill="#0c2435" stroke="#0c2435"></path><path d="M900 210.3L900 189.4L885 188.3Z" fill="#205a7a" stroke="#205a7a"></path><path d="M834 0L786 0L812 67.7Z" fill="#1d4e6b" stroke="#1d4e6b"></path><path d="M812 67.7L786 0L780 60.9Z" fill="#19435d" stroke="#19435d"></path><path d="M876 97.7L812 67.7L848 119.6Z" fill="#1d4e6b" stroke="#1d4e6b"></path><path d="M0 147.6L36 106.6L0 99.7Z" fill="#205a7a" stroke="#205a7a"></path><path d="M0 147.6L0 153.4L58 187.3Z" fill="#1d4e6b" stroke="#1d4e6b"></path><path d="M0 513.3L0 536.1L51 502.3Z" fill="#19435d" stroke="#19435d"></path><path d="M36 106.6L68 85.7L0 51.9Z" fill="#0c2435" stroke="#0c2435"></path><path d="M816 600L865 600L856 562.1Z" fill="#246688" stroke="#246688"></path><path d="M856 562.1L900 583.1L860 530.3Z" fill="#081a28" stroke="#081a28"></path><path d="M900 189.4L900 146.6L885 188.3Z" fill="#277297" stroke="#277297"></path><path d="M900 146.6L876 97.7L848 119.6Z" fill="#19435d" stroke="#19435d"></path><path d="M44 20.9L68 85.7L99 22.9Z" fill="#00101c" stroke="#00101c"></path><path d="M116 0L71 0L99 22.9Z" fill="#15384f" stroke="#15384f"></path><path d="M900 71.7L869 54.9L876 97.7Z" fill="#246688" stroke="#246688"></path><path d="M876 97.7L869 54.9L812 67.7Z" fill="#205a7a" stroke="#205a7a"></path><path d="M865 600L900 583.1L856 562.1Z" fill="#297ea6" stroke="#297ea6"></path><path d="M0 536.1L0 600L47 581.1Z" fill="#00101c" stroke="#00101c"></path><path d="M71 0L44 20.9L99 22.9Z" fill="#00101c" stroke="#00101c"></path><path d="M869 54.9L834 0L812 67.7Z" fill="#112e42" stroke="#112e42"></path><path d="M865 600L900 600L900 583.1Z" fill="#081a28" stroke="#081a28"></path><path d="M900 146.6L900 71.7L876 97.7Z" fill="#205a7a" stroke="#205a7a"></path><path d="M869 54.9L900 24.9L834 0Z" fill="#246688" stroke="#246688"></path><path d="M71 0L43 0L44 20.9Z" fill="#246688" stroke="#246688"></path><path d="M44 20.9L0 51.9L68 85.7Z" fill="#00101c" stroke="#00101c"></path><path d="M0 0L0 51.9L44 20.9Z" fill="#00101c" stroke="#00101c"></path><path d="M900 71.7L900 24.9L869 54.9Z" fill="#1d4e6b" stroke="#1d4e6b"></path><path d="M43 0L0 0L44 20.9Z" fill="#205a7a" stroke="#205a7a"></path><path d="M900 24.9L900 0L834 0Z" fill="#19435d" stroke="#19435d"></path></g></svg>