<svg id="visual" viewBox="0 0 900 600" width="900" height="600" xmlns="http://www.w3.org/2000/svg" xmlns:xlink="http://www.w3.org/1999/xlink" version="1.1"><rect width="900" height="600" fill="#931F1F"></rect><g><g transform="translate(750 586)"><path d="M70.8 -76.7C91.7 -66.9 108.4 -44.5 116.2 -17.9C124 8.7 123 39.6 108.4 60.5C93.8 81.4 65.7 92.5 41.2 92.3C16.7 92.2 -4.3 80.8 -21.2 69.7C-38.1 58.6 -50.9 47.6 -65 32.8C-79.2 18 -94.8 -0.7 -95.8 -20.8C-96.9 -40.8 -83.5 -62.2 -65.1 -72.4C-46.7 -82.7 -23.4 -81.9 0.8 -82.8C25 -83.8 50 -86.5 70.8 -76.7Z" fill="#F7760E"></path></g><g transform="translate(503 300)"><path d="M56.7 -62.2C71.5 -55.1 80.3 -35.4 87 -13C93.7 9.3 98.3 34.4 86.9 46.4C75.5 58.5 48 57.5 23.7 67.4C-0.7 77.4 -22 98.2 -34.2 93.8C-46.3 89.4 -49.3 59.8 -63.5 36.2C-77.7 12.6 -103.1 -5 -106.1 -24C-109.1 -43.1 -89.7 -63.4 -68.3 -69.4C-46.9 -75.4 -23.4 -67 -1.3 -65.5C20.9 -64 41.8 -69.4 56.7 -62.2Z" fill="#F7760E"></path></g><g transform="translate(131 382)"><path d="M24.6 -34.8C30.5 -24.4 33 -15.3 32.8 -7.1C32.6 1 29.8 8.3 25.6 14C21.4 19.7 15.8 23.8 9.5 26C3.3 28.2 -3.6 28.5 -13.5 28.6C-23.4 28.7 -36.4 28.6 -40.5 22.7C-44.7 16.9 -40.1 5.3 -34.9 -3.1C-29.8 -11.4 -24 -16.6 -18.1 -26.9C-12.2 -37.3 -6.1 -52.8 1.6 -54.7C9.4 -56.7 18.7 -45.1 24.6 -34.8Z" fill="#F7760E"></path></g><g transform="translate(318 4)"><path d="M10.5 -13C12.6 -10.8 12.7 -6.5 12.1 -3.1C11.5 0.3 10.3 2.7 8.8 4.9C7.3 7 5.6 8.7 3.4 9.5C1.3 10.3 -1.2 10.2 -4.6 10.1C-8.1 10 -12.6 9.9 -14.1 7.9C-15.6 5.8 -14.2 1.8 -13.5 -2.4C-12.8 -6.6 -12.8 -11 -10.7 -13.2C-8.6 -15.4 -4.3 -15.4 0 -15.4C4.2 -15.4 8.4 -15.2 10.5 -13Z" fill="#F7760E"></path></g><g transform="translate(888 222)"><path d="M48.3 -64.9C57.7 -49.7 57.1 -29.8 67.6 -6.6C78 16.7 99.6 43.3 94.7 57.5C89.9 71.7 58.6 73.4 34 74C9.4 74.5 -8.6 73.8 -33.7 73.1C-58.7 72.4 -90.8 71.7 -96.8 57.7C-102.8 43.6 -82.7 16.3 -69.1 -3.7C-55.5 -23.8 -48.4 -36.5 -38 -51.5C-27.5 -66.5 -13.8 -83.8 2.8 -87.2C19.4 -90.6 38.9 -80.1 48.3 -64.9Z" fill="#F7760E"></path></g></g></svg>